<?xml version="1.0" standalone="no"?>
<!DOCTYPE svg PUBLIC "-//W3C//DTD SVG 20010904//EN"
 "http://www.w3.org/TR/2001/REC-SVG-20010904/DTD/svg10.dtd">
<svg version="1.0" xmlns="http://www.w3.org/2000/svg"
 width="648.000000pt" height="648.000000pt" viewBox="0 0 648.000000 648.000000"
 preserveAspectRatio="xMidYMid meet">
<metadata>
Created by potrace 1.11, written by Peter Selinger 2001-2013
</metadata>
<g transform="translate(0.000000,648.000000) scale(0.100000,-0.100000)"
fill="#000000" stroke="none">
<path d="M3560 4544 c-50 -10 -220 -13 -754 -14 l-688 0 -51 -42 c-29 -24 -59
-49 -69 -57 -9 -8 -15 -18 -12 -23 3 -4 300 -8 660 -8 372 0 654 -4 654 -9 0
-5 -18 -25 -40 -45 l-40 -36 -671 0 -671 0 -68 -57 c-38 -32 -66 -61 -64 -65
3 -5 318 -8 701 -8 l695 0 -5 -27 c-8 -45 -39 -157 -47 -173 -6 -13 -104 -16
-761 -20 -415 -3 -747 -8 -739 -13 8 -4 350 -8 760 -10 l745 -2 1 -73 c1 -40
5 -84 8 -97 4 -14 2 -25 -4 -25 -5 0 -10 -4 -10 -10 0 -5 6 -10 13 -10 12 0
19 -15 47 -90 8 -19 22 -47 32 -62 10 -14 18 -35 18 -47 l0 -21 -617 -3 -618
-2 633 -3 634 -2 51 -54 c53 -54 169 -136 194 -136 7 0 13 -4 13 -10 0 -7
-232 -10 -677 -10 -440 0 -674 -3 -667 -10 6 -6 290 -11 754 -14 410 -3 786
-8 835 -11 216 -16 415 80 559 270 103 134 149 345 112 515 -31 145 -80 234
-188 343 -48 48 -93 87 -99 87 -6 0 -23 8 -37 18 -33 23 -100 50 -170 68 -66
18 -263 17 -352 -2z m361 -322 c24 -16 49 -35 55 -43 31 -38 54 -93 54 -130 0
-38 -2 -41 -22 -35 -13 3 -31 6 -40 6 -11 0 -24 15 -33 37 -23 54 -50 79 -101
93 -35 10 -50 10 -76 0 -42 -17 -75 -46 -93 -84 -28 -55 -25 -56 100 -56 129
0 139 -6 112 -61 l-15 -31 -116 1 c-64 1 -121 -1 -126 -4 -6 -4 -5 -13 3 -25
11 -18 24 -20 135 -20 135 0 144 -4 118 -55 l-15 -30 -115 4 c-127 3 -143 -4
-102 -46 14 -14 26 -30 26 -36 0 -18 42 -57 61 -57 10 0 21 -4 24 -10 8 -12
49 -13 73 -1 9 4 33 16 52 25 41 19 63 61 58 108 l-3 33 55 0 c49 0 55 -2 52
-20 -2 -11 -6 -35 -9 -53 -3 -18 -9 -35 -14 -38 -5 -3 -9 -13 -9 -22 0 -29
-59 -90 -107 -112 -32 -14 -67 -20 -117 -20 -62 0 -78 4 -118 29 -56 35 -86
77 -113 156 l-21 60 -49 5 -50 5 -2 39 -2 38 50 -6 50 -7 -3 28 c-2 21 -9 29
-28 31 -66 7 -70 10 -70 54 l0 41 54 -6 c54 -5 54 -5 66 26 7 18 20 48 28 67
9 19 15 40 14 47 -4 17 66 83 88 83 10 0 22 5 25 10 3 6 43 10 89 10 73 0 87
-3 127 -28z m-711 -139 c0 -67 86 -246 153 -319 45 -49 245 -208 295 -233 12
-7 43 -12 70 -13 71 -3 221 13 228 23 3 5 25 9 49 9 24 0 47 5 50 10 3 6 15
10 26 10 19 0 29 4 78 29 59 32 97 54 112 67 15 13 17 13 23 -2 3 -9 2 -22 -3
-28 -5 -6 -12 -30 -16 -53 -4 -24 -11 -43 -16 -43 -5 0 -9 -5 -9 -11 0 -31
-127 -146 -204 -183 -166 -81 -330 -92 -500 -34 -242 83 -416 326 -416 583 0
64 18 175 35 217 11 27 45 4 45 -29z"/>
<path d="M535 3080 c-3 -5 -2 -10 4 -10 5 0 13 5 16 10 3 6 2 10 -4 10 -5 0
-13 -4 -16 -10z"/>
<path d="M5872 3052 c-22 -22 -45 -53 -53 -70 -8 -18 -17 -32 -21 -32 -5 0 -8
-9 -8 -20 0 -11 -4 -20 -10 -20 -5 0 -10 -7 -10 -15 0 -8 -4 -23 -9 -33 -8
-16 -17 -37 -40 -94 -25 -63 -43 -99 -57 -112 -12 -13 -12 -19 -2 -36 10 -16
10 -24 0 -40 -6 -11 -12 -49 -12 -85 0 -62 1 -65 24 -65 14 0 28 5 31 10 3 6
-3 10 -14 10 -19 0 -21 6 -21 59 0 33 5 63 10 66 6 3 10 17 10 31 0 13 4 32 9
42 6 9 12 29 16 45 6 29 41 39 51 13 3 -8 13 -12 26 -8 17 4 18 6 5 14 -17 9
-47 63 -47 83 0 7 14 24 32 38 26 22 29 29 18 42 -11 13 -9 23 11 63 13 26 27
49 32 50 4 2 7 9 7 16 0 19 34 46 58 46 15 0 22 6 22 20 0 29 -15 25 -58 -18z"/>
<path d="M432 3005 c-34 -35 -62 -71 -62 -80 0 -8 -3 -15 -7 -15 -11 0 -33
-50 -33 -71 0 -10 -4 -21 -10 -24 -5 -3 -10 -45 -10 -92 0 -96 15 -129 72
-157 37 -19 38 -19 38 -6 0 6 -6 10 -13 10 -15 0 -50 45 -59 77 -9 31 0 155
13 168 5 5 9 17 9 26 0 19 41 102 53 107 4 2 7 10 7 17 0 7 21 34 46 59 25 25
40 46 32 46 -7 0 -41 -29 -76 -65z"/>
<path d="M613 3053 c1 -49 -5 -71 -21 -89 -25 -27 -34 -54 -18 -54 7 0 18 12
25 28 8 15 17 35 22 44 11 22 12 88 1 88 -5 0 -9 -8 -9 -17z"/>
<path d="M4165 3037 c-44 -48 -55 -72 -55 -120 0 -37 5 -49 33 -73 17 -16 45
-35 60 -43 15 -8 46 -30 67 -49 35 -30 40 -39 40 -77 0 -38 -5 -47 -37 -74
-21 -17 -32 -31 -26 -31 6 0 27 16 47 36 31 31 36 42 36 84 0 41 -5 53 -35 83
-19 19 -51 42 -70 52 -88 41 -121 121 -73 176 12 13 30 34 41 47 32 35 5 25
-28 -11z"/>
<path d="M4330 3031 c0 -22 -4 -43 -10 -46 -5 -3 -10 -16 -10 -29 0 -12 -5
-27 -12 -34 -8 -8 -9 -15 -2 -22 7 -7 15 -2 23 17 7 16 17 36 22 45 12 24 11
108 -1 108 -5 0 -10 -18 -10 -39z"/>
<path d="M1527 2989 c-9 -6 -17 -16 -17 -24 0 -7 -3 -15 -7 -17 -11 -4 -53
-87 -53 -103 0 -7 -7 -18 -15 -25 -8 -7 -12 -16 -9 -22 3 -5 1 -14 -4 -21 -9
-12 -18 -49 -29 -120 -6 -40 8 -67 35 -67 13 0 13 2 -1 18 -19 20 -23 87 -7
97 6 3 10 16 10 29 0 31 22 76 38 76 7 0 10 5 6 11 -5 9 30 94 46 109 11 10
33 60 29 64 -2 3 -12 0 -22 -5z"/>
<path d="M5465 2992 c-5 -4 -16 -18 -23 -31 -8 -13 -22 -39 -33 -58 -10 -18
-19 -39 -19 -45 0 -6 -7 -20 -17 -30 -9 -10 -18 -33 -20 -51 -1 -17 -8 -43
-14 -57 -7 -14 -16 -35 -22 -48 -8 -17 -8 -25 0 -30 6 -4 12 -16 14 -27 3 -12
14 -21 29 -24 24 -3 24 -2 7 16 -19 22 -24 107 -7 118 6 3 10 16 10 29 0 12 9
32 20 44 11 12 20 28 20 36 0 15 55 125 71 141 19 19 6 34 -16 17z"/>
<path d="M4737 2943 c-14 -13 -6 -33 13 -33 13 0 20 7 20 20 0 19 -20 27 -33
13z"/>
<path d="M5642 2938 c-17 -17 -15 -28 7 -28 16 0 31 18 31 36 0 9 -27 3 -38
-8z"/>
<path d="M6017 2943 c-14 -13 -6 -33 13 -33 13 0 20 7 20 20 0 19 -20 27 -33
13z"/>
<path d="M677 2863 c-12 -12 -7 -53 6 -53 9 0 12 10 9 30 -5 32 -5 33 -15 23z"/>
<path d="M2410 2840 c0 -16 4 -30 9 -30 4 0 8 13 7 30 -1 39 -16 39 -16 0z"/>
<path d="M2650 2840 c0 -16 4 -30 9 -30 4 0 8 13 7 30 -1 39 -16 39 -16 0z"/>
<path d="M1157 2844 c-4 -4 -7 -34 -7 -66 0 -32 -4 -58 -10 -58 -5 0 -10 -8
-10 -18 0 -10 -5 -23 -12 -30 -8 -8 -8 -15 0 -25 11 -13 4 -53 -19 -99 -5 -10
-9 -27 -9 -37 0 -11 -4 -23 -10 -26 -5 -3 -10 -17 -10 -31 0 -13 5 -24 10 -24
6 0 10 9 10 19 0 11 5 23 10 26 6 3 10 17 10 30 0 13 4 26 9 29 5 3 11 20 14
38 4 18 9 49 12 68 6 33 24 79 35 90 3 3 11 15 18 28 10 19 10 22 -4 22 -11 0
-14 8 -12 32 3 29 -10 46 -25 32z"/>
<path d="M2960 2836 c0 -2 11 -6 25 -8 13 -3 22 -1 19 3 -5 9 -44 13 -44 5z"/>
<path d="M4944 2827 c19 -14 19 -15 -3 -58 l-23 -44 26 25 c33 30 33 83 1 88
-20 4 -20 4 -1 -11z"/>
<path d="M1265 2820 c-3 -6 4 -10 17 -10 73 0 62 -118 -16 -182 -12 -10 -16
-18 -11 -18 15 0 49 31 73 67 26 37 30 116 8 139 -17 16 -62 19 -71 4z"/>
<path d="M1700 2815 c-6 -8 -10 -19 -8 -26 2 -6 9 0 16 15 13 29 10 33 -8 11z"/>
<path d="M2893 2792 c-37 -37 -83 -112 -83 -135 0 -20 48 -73 57 -63 4 5 2 11
-4 13 -17 6 -17 72 0 79 8 3 12 16 10 32 -3 20 5 38 32 70 45 52 38 55 -12 4z"/>
<path d="M3438 2788 c-24 -24 -54 -62 -66 -86 -24 -48 -19 -67 28 -109 28 -25
38 -27 60 -13 12 8 9 10 -11 10 -30 0 -56 26 -57 55 0 19 3 30 32 95 6 14 26
40 44 58 19 17 30 32 24 32 -6 0 -30 -19 -54 -42z"/>
<path d="M3528 2814 c6 -11 8 -30 5 -42 -3 -13 -1 -22 6 -22 17 0 13 56 -6 71
-15 13 -15 12 -5 -7z"/>
<path d="M4673 2802 c-13 -15 -23 -34 -23 -42 0 -8 -9 -26 -20 -40 -11 -14
-20 -32 -20 -40 0 -9 -6 -22 -12 -29 -10 -10 -10 -12 -1 -9 7 2 23 -10 36 -26
20 -24 27 -27 43 -18 18 11 18 11 -3 12 -18 0 -23 6 -25 28 -3 59 5 86 44 144
34 49 18 66 -19 20z"/>
<path d="M4849 2797 c-28 -26 -67 -89 -97 -159 -2 -5 5 -8 15 -8 10 0 24 -9
31 -20 19 -31 32 -23 16 10 -15 29 -11 70 6 70 5 0 7 6 4 13 -7 20 11 61 41
91 39 39 25 42 -16 3z"/>
<path d="M5585 2817 c-11 -13 -25 -43 -47 -94 -7 -18 -16 -33 -20 -33 -20 0
-1 -55 29 -88 9 -9 18 -10 30 -3 16 9 16 10 -4 11 -20 0 -23 5 -23 45 0 40 24
101 51 130 11 11 12 45 2 45 -5 -1 -12 -6 -18 -13z"/>
<path d="M5963 2815 c-7 -8 -13 -18 -13 -24 0 -5 -14 -23 -30 -41 -21 -23 -27
-36 -20 -44 5 -7 9 -28 8 -48 -2 -46 7 -58 40 -57 24 2 24 2 5 6 -20 4 -23 11
-23 48 0 40 34 125 53 133 4 2 7 12 7 23 0 22 -10 24 -27 4z"/>
<path d="M6155 2817 c-38 -23 -85 -84 -85 -110 0 -9 -5 -17 -12 -19 -20 -7 11
-85 40 -104 18 -12 30 -13 46 -6 20 10 20 11 -4 11 -38 1 -50 19 -50 74 0 52
36 118 82 150 26 18 13 22 -17 4z"/>
<path d="M710 2800 c0 -5 5 -10 10 -10 12 0 13 -62 2 -75 -5 -6 -15 -29 -22
-53 -15 -49 -7 -63 40 -61 17 1 19 3 8 6 -13 3 -18 15 -18 43 0 21 5 42 10 45
15 9 12 84 -4 101 -17 16 -26 18 -26 4z"/>
<path d="M901 2783 c-8 -16 -17 -36 -22 -45 -5 -10 -9 -24 -9 -32 0 -8 -6 -16
-12 -19 -20 -6 11 -57 34 -57 16 0 17 3 7 21 -9 17 -8 32 2 63 7 23 16 45 21
51 10 12 10 45 0 45 -5 0 -14 -12 -21 -27z"/>
<path d="M1893 2785 c-33 -35 -75 -113 -64 -119 5 -3 12 -20 15 -38 7 -36 45
-62 74 -50 13 5 10 8 -13 12 -29 5 -30 8 -33 59 -2 41 2 65 19 98 12 24 26 43
31 43 4 0 8 5 8 10 0 16 -13 11 -37 -15z"/>
<path d="M2449 2792 c12 -23 6 -88 -10 -98 -14 -8 -10 -80 5 -93 7 -6 22 -8
31 -4 17 6 16 7 -3 14 -22 8 -29 37 -14 55 5 5 15 28 22 52 13 42 13 44 -14
70 -25 24 -27 25 -17 4z"/>
<path d="M2689 2792 c12 -23 6 -88 -10 -98 -14 -8 -10 -80 5 -93 7 -6 22 -8
31 -4 17 6 16 7 -3 14 -22 8 -29 37 -14 55 5 5 15 28 22 52 13 42 13 44 -14
70 -25 24 -27 25 -17 4z"/>
<path d="M3643 2798 c-19 -30 -33 -61 -33 -74 0 -8 -4 -14 -10 -14 -5 0 -10
-8 -10 -18 0 -10 -5 -23 -12 -30 -9 -9 -7 -12 10 -12 12 0 22 -4 22 -10 0 -5
6 -10 13 -10 8 0 11 15 9 48 -3 35 2 59 17 85 12 21 21 40 21 42 0 10 -19 4
-27 -7z"/>
<path d="M4443 2774 c-33 -38 -49 -102 -38 -152 6 -30 47 -55 73 -44 13 5 10
8 -13 12 -29 5 -30 8 -33 59 -2 41 2 65 19 98 12 24 26 43 31 43 4 0 8 5 8 10
0 18 -15 10 -47 -26z"/>
<path d="M1043 2775 c-7 -8 -13 -22 -13 -31 0 -9 -9 -29 -20 -45 -18 -24 -19
-31 -8 -48 10 -16 10 -23 0 -33 -6 -6 -12 -19 -12 -28 0 -8 -9 -21 -19 -27
-12 -7 -17 -19 -15 -30 3 -11 -8 -38 -26 -63 l-32 -45 34 35 c38 41 58 73 58
94 0 8 10 22 22 30 17 13 22 24 19 52 -1 19 2 40 7 47 9 11 27 107 20 107 -2
-1 -9 -7 -15 -15z"/>
<path d="M2090 2771 c0 -11 -4 -23 -10 -26 -5 -3 -10 -15 -10 -26 0 -10 -4
-19 -9 -19 -5 0 -11 -11 -13 -25 -3 -14 -1 -25 4 -25 5 0 13 -11 18 -25 11
-30 37 -42 53 -26 8 8 6 11 -10 11 -13 0 -23 8 -27 23 -6 24 3 96 14 112 17
24 19 45 5 45 -8 0 -15 -9 -15 -19z"/>
<path d="M2968 2749 c-21 -21 -34 -39 -29 -39 12 0 71 59 71 71 0 12 0 12 -42
-32z"/>
<path d="M3083 2775 c-7 -8 -13 -26 -13 -40 0 -14 -4 -25 -10 -25 -5 0 -10 -7
-10 -15 0 -9 -9 -26 -20 -37 -18 -20 -19 -24 -5 -37 14 -14 18 -13 40 11 14
15 25 31 25 36 0 4 10 19 22 32 15 16 18 25 10 28 -7 2 -12 17 -12 33 0 32 -8
36 -27 14z"/>
<path d="M3190 2780 c0 -5 8 -10 18 -10 10 0 23 -5 30 -12 15 -15 16 -64 2
-73 -15 -9 -12 -75 3 -75 9 0 12 9 9 29 -2 16 1 32 7 35 6 4 11 32 11 62 l0
54 -40 0 c-22 0 -40 -4 -40 -10z"/>
<path d="M3776 2775 c-23 -57 -38 -86 -52 -100 -8 -8 -11 -15 -5 -15 20 0 11
-54 -13 -84 -13 -17 -21 -38 -18 -48 6 -24 22 -23 22 2 0 11 5 20 10 20 6 0
10 7 10 15 0 8 9 19 20 25 17 9 18 14 8 30 -10 15 -10 22 0 32 6 6 12 21 12
33 0 12 5 26 11 32 6 6 9 26 7 44 -3 29 -5 31 -12 14z"/>
<path d="M5043 2775 c-7 -8 -13 -26 -13 -40 0 -14 -4 -25 -10 -25 -5 0 -10 -6
-10 -13 0 -7 -10 -23 -21 -36 -20 -21 -20 -24 -5 -39 15 -15 18 -15 41 10 14
15 25 31 25 36 0 4 10 19 22 32 15 16 18 25 10 28 -7 2 -12 17 -12 33 0 32 -8
36 -27 14z"/>
<path d="M5150 2780 c0 -5 8 -10 18 -10 10 0 23 -5 30 -12 15 -15 16 -64 2
-73 -15 -9 -12 -75 3 -75 9 0 12 9 9 29 -2 16 1 32 7 35 6 4 11 32 11 62 l0
54 -40 0 c-22 0 -40 -4 -40 -10z"/>
<path d="M1996 2771 c-4 -7 -5 -15 -2 -18 9 -9 19 4 14 18 -4 11 -6 11 -12 0z"/>
<path d="M4556 2771 c-4 -7 -5 -15 -2 -18 9 -9 19 4 14 18 -4 11 -6 11 -12 0z"/>
<path d="M1623 2755 c-7 -8 -13 -17 -13 -21 0 -3 -9 -19 -21 -35 -20 -29 -20
-31 -4 -65 18 -39 36 -50 63 -39 14 7 13 9 -8 14 -20 6 -26 14 -28 45 -2 21 1
43 7 49 6 6 11 17 11 25 0 8 8 21 18 28 14 11 14 13 2 13 -8 0 -21 -6 -27 -14z"/>
<path d="M2204 2706 l-30 -63 22 -27 c13 -14 28 -26 35 -26 8 0 6 7 -4 18 -20
21 -21 34 -7 62 6 11 15 29 20 40 12 23 13 60 3 60 -5 0 -22 -29 -39 -64z"/>
<path d="M4052 2727 c-35 -37 -25 -114 18 -142 45 -29 123 -44 135 -25 4 6
-11 10 -37 10 -32 0 -51 7 -72 25 -26 22 -30 32 -29 75 0 28 6 57 13 65 20 24
-5 17 -28 -8z"/>
<path d="M4895 2720 c-3 -5 -1 -10 4 -10 6 0 11 5 11 10 0 6 -2 10 -4 10 -3 0
-8 -4 -11 -10z"/>
<path d="M1710 2669 c0 -25 33 -22 38 4 2 12 -3 17 -17 17 -15 0 -21 -6 -21
-21z"/>
<path d="M3658 2468 c-15 -18 -25 -35 -22 -37 5 -5 54 51 54 62 0 12 -5 8 -32
-25z"/>
</g>
</svg>
